<?xml version="1.0" encoding="UTF-8" standalone="no"?>
<!-- Created with Inkscape (http://www.inkscape.org/) -->

<svg
   xmlns:dc="http://purl.org/dc/elements/1.1/"
   xmlns:cc="http://creativecommons.org/ns#"
   xmlns:rdf="http://www.w3.org/1999/02/22-rdf-syntax-ns#"
   xmlns:svg="http://www.w3.org/2000/svg"
   xmlns="http://www.w3.org/2000/svg"
   xmlns:sodipodi="http://sodipodi.sourceforge.net/DTD/sodipodi-0.dtd"
   xmlns:inkscape="http://www.inkscape.org/namespaces/inkscape"
   version="1.1"
   id="svg2"
   xml:space="preserve"
   width="743.99646"
   height="452.66782"
   viewBox="0 0 743.99646 452.66782"
   sodipodi:docname="11.svg"
   inkscape:version="0.92.4 5da689c313, 2019-01-14"><metadata
     id="metadata8"><rdf:RDF><cc:Work
         rdf:about=""><dc:format>image/svg+xml</dc:format><dc:type
           rdf:resource="http://purl.org/dc/dcmitype/StillImage" /><dc:title></dc:title></cc:Work></rdf:RDF></metadata><defs
     id="defs6" /><sodipodi:namedview
     pagecolor="#ffffff"
     bordercolor="#666666"
     borderopacity="1"
     objecttolerance="10"
     gridtolerance="10"
     guidetolerance="10"
     inkscape:pageopacity="0"
     inkscape:pageshadow="2"
     inkscape:window-width="1920"
     inkscape:window-height="1050"
     id="namedview4"
     showgrid="false"
     inkscape:zoom="0.64163563"
     inkscape:cx="205.70232"
     inkscape:cy="18.181278"
     inkscape:window-x="0"
     inkscape:window-y="0"
     inkscape:window-maximized="1"
     inkscape:current-layer="g12" /><g
     id="g10"
     inkscape:groupmode="layer"
     inkscape:label="ink_ext_XXXXXX"
     transform="matrix(1.3333333,0,0,-1.3333333,-623.99978,1420.6312)"><g
       id="g12"
       transform="scale(0.1)"><path
         d="m 5405.46,9811.71 c -31.11,260.99 1.87,529.39 95.26,774.99 176.57,-180.7 302.63,-410.3 360.43,-656.23 42.97,233.53 114.89,461.73 213.62,677.63 9.71,21.3 24.08,45.5 47.42,46.6 27.34,1.2 43.47,-29.6 52.32,-55.5 84.37,-246.9 134.62,-505.5 148.87,-766.13 l -917.92,-21.36"
         style="fill:#121110;fill-opacity:1;fill-rule:nonzero;stroke:none"
         id="path14"
         inkscape:connector-curvature="0" /><path
         d="m 9142.52,8945.4 c 93.48,-63.99 222.53,-25.42 319.13,33.74 131.31,80.42 241.06,195.69 314.95,330.78 72.05,131.74 108.24,297.79 37.83,430.42 -70.41,132.62 -277.93,187.97 -375.06,73.46 -57.7,-68.01 -61.99,-171.39 -124.94,-234.57 -95.04,-95.38 -276.04,-32.24 -331.68,90.37 -55.62,122.61 -16.02,268.73 51.72,385.1 110.81,190.3 301.41,337.8 518.49,375 217.08,37.3 455.94,-45.5 586.84,-222.6 93.8,-126.9 128,-290.83 118.7,-448.31 -19.7,-336.56 -228.2,-642.11 -499.62,-842.04 -271.45,-199.95 -600.57,-306.36 -930.24,-376.96 l 313.88,405.61"
         style="fill:#121110;fill-opacity:1;fill-rule:nonzero;stroke:none"
         id="path16"
         inkscape:connector-curvature="0" /><path
         d="m 5422.6,7805.59 c 20.47,-129.86 52.02,-268.3 149.79,-356.18 96.67,-86.9 235.48,-104.21 364.95,-115.73 1078.8,-95.97 2168.56,-68.18 3241.06,82.66 49.44,6.95 103.35,16.53 135.86,54.43 26.52,30.92 32.66,73.92 37.28,114.4 44.6,390.76 49.2,786.08 13.7,1177.78 -7.58,83.81 -21.46,176.15 -86.06,230.09 -51.28,42.81 -122.34,50.61 -188.91,56.23 -1063.98,89.78 -2136.31,80.38 -3198.58,-28.03 -694.3,-70.86 -557.03,-657.63 -469.09,-1215.65"
         style="fill:#ffffff;fill-opacity:1;fill-rule:nonzero;stroke:none"
         id="path42"
         inkscape:connector-curvature="0" /><path
         d="m 5359,8207.61 c -92.96,539.82 -183.35,1110.53 11.27,1622.56 20.62,54.23 45.72,109.25 90.01,146.71 54.3,45.92 128.52,58.42 198.81,69.12 252.55,38.6 530.36,72.3 746.46,-63.94 143.88,-90.72 235.53,-242.8 321.91,-389.33 149.2,-253.07 298.4,-506.14 447.6,-759.21 L 5359,8207.61"
         style="fill:#ffffff;fill-opacity:1;fill-rule:nonzero;stroke:none"
         id="path44"
         inkscape:connector-curvature="0" /><path
         d="m 6277.73,9707.14 c -70.83,0 -70.94,-110.08 0,-110.08 70.83,0 70.95,110.08 0,110.08"
         style="fill:#121110;fill-opacity:1;fill-rule:nonzero;stroke:none"
         id="path46"
         inkscape:connector-curvature="0" /><path
         d="m 5655.52,9691.78 c -76.89,0 -77.01,-119.49 0,-119.49 76.88,0 77.01,119.49 0,119.49"
         style="fill:#121110;fill-opacity:1;fill-rule:nonzero;stroke:none"
         id="path48"
         inkscape:connector-curvature="0" /><path
         d="m 6289.11,9326.26 c -33.95,-46.46 -79.85,-90.21 -142.68,-77.59 -51.37,10.31 -82.2,57.8 -85.96,107.08 3.06,15.92 4.65,32.19 4.62,48.57 1.45,2.01 2.87,4.04 4.28,5.88 1.31,3.12 2.63,6.24 3.95,9.36 1.63,5.21 1.87,10.42 0.7,15.63 -1.11,8.22 -4.48,16.72 -10.78,22.49 -5,4.6 -10.83,7.99 -17.29,10.08 -8.3,2.69 -22.99,1.56 -30.19,-3.95 -4.03,-3.08 -9.03,-6.23 -12.48,-9.61 -3.7,-3.63 -6.51,-8.27 -9.46,-12.56 -2.77,-4.04 -5.53,-8.08 -8.29,-12.12 -4.49,-6.55 -5.32,-15.54 -4.3,-23.09 1.02,-7.6 4.14,-15.46 9.96,-20.8 4.62,-4.25 10.01,-7.38 15.98,-9.31 1.14,-0.37 2.53,-0.48 3.83,-0.69 -0.5,-7.31 -0.48,-14.59 -0.08,-21.85 -11.05,-47.5 -38.88,-90.18 -82.17,-116.29 -66.81,-40.27 -127.94,-19.77 -198.01,-8.05 -11.46,1.92 -19.66,-10.45 -11.44,-19.65 55.76,-62.47 167.05,-51.36 232.9,-12.41 33.94,20.08 60.72,48.45 79.72,81.38 19.2,-35.99 50.47,-65.49 91.02,-80.29 81.27,-29.66 199.95,15.11 212.6,108.22 3.86,28.44 -28.71,43.82 -46.43,19.57"
         style="fill:#121110;fill-opacity:1;fill-rule:nonzero;stroke:none"
         id="path50"
         inkscape:connector-curvature="0" /><path
         d="m 6946.01,9810.45 c -57.96,12.27 -114.8,-35.97 -164.41,-62.2 -61.71,-32.64 -123.32,-65.16 -183.88,-99.91 -46.92,-26.93 -5.75,-93.78 41.79,-71.49 60.31,28.27 119.52,58.48 178.83,88.81 46.61,23.83 125.83,45.25 147.63,95.72 7.92,18.36 3.29,44.15 -19.96,49.07"
         style="fill:#121110;fill-opacity:1;fill-rule:nonzero;stroke:none"
         id="path52"
         inkscape:connector-curvature="0" /><path
         d="m 7057.82,9552.65 c -49.88,42.06 -148.33,2.03 -204.41,-14.54 -66.83,-19.74 -157.63,-44.68 -208.8,-93.43 -17.42,-16.6 1.31,-40.17 21.5,-36.96 35.02,5.58 67.65,24.04 101.3,35.48 34.14,11.6 68.92,21.36 104.09,29.3 38.12,8.61 76.11,13.74 114.86,18.34 28.8,3.42 51.76,3.13 71.46,26.55 8.1,9.62 11,25.99 0,35.26"
         style="fill:#121110;fill-opacity:1;fill-rule:nonzero;stroke:none"
         id="path54"
         inkscape:connector-curvature="0" /><path
         d="m 5366.14,9562.22 c -51.29,19.86 -118.32,32.17 -168.01,2.52 -18.75,-11.18 -21,-42.2 0,-52.8 41.88,-21.14 91.49,-22.08 136.55,-34 37.93,-10.03 86.55,-50.35 125.12,-34.67 11.22,4.57 18.99,12.75 19.34,25.41 1.49,52.92 -71.7,77.55 -113,93.54"
         style="fill:#121110;fill-opacity:1;fill-rule:nonzero;stroke:none"
         id="path56"
         inkscape:connector-curvature="0" /><path
         d="m 5473.34,9342.93 c -102.51,51.12 -216.7,50.41 -307.68,-23.11 -29.26,-23.66 2.27,-76.62 37.08,-63.69 78.46,29.14 161.01,45.16 243.05,21.45 38.13,-11.01 64.44,46.95 27.55,65.35"
         style="fill:#121110;fill-opacity:1;fill-rule:nonzero;stroke:none"
         id="path58"
         inkscape:connector-curvature="0" /><path
         d="m 5624.29,7779.66 c -249.63,-18.92 -496.99,-67.57 -735.18,-144.6 -107.06,-34.62 -235.31,-116.43 -204.44,-224.64 24.37,-85.4 131.02,-111.09 219.39,-119.89 752.6,-74.89 1511.12,0.94 2263.62,76.73 l -1543.39,412.4"
         style="fill:#ffffff;fill-opacity:1;fill-rule:nonzero;stroke:none"
         id="path60"
         inkscape:connector-curvature="0" /></g></g></svg>